<?xml version="1.0" encoding="utf-8"?>
<!-- Generator: Adobe Illustrator 26.0.3, SVG Export Plug-In . SVG Version: 6.00 Build 0)  -->
<svg version="1.0" id="katman_1" xmlns="http://www.w3.org/2000/svg" xmlns:xlink="http://www.w3.org/1999/xlink" x="0px" y="0px"
	 viewBox="0 0 800 600" style="enable-background:new 0 0 800 600;" xml:space="preserve">
<path d="M162.4,263.1c-6.5-4.2-7.9-14.7-7.9-14.7c-9.1-3-17.9-6.7-26.4-11c-5.9-4-7.3-6.3-16.2-8.9c19.1-16,12.2-42.3,10.3-33.1
	c-1.5,7.2-15.1,24-21,31.1c-0.4,0-1.3,0.2-1.7,0.2c14.1-17,8.1-42.5,6.6-36.6c-2.4,9.4-26.2,46.3-26.2,46.3s-14,12.5-15.4,16.2
	c0,0,3.3-0.8,5.1-0.7c0,0-12.9,23.4-13.1,33.8c0,0,2.1-2.3,3.4-3.1c-0.1,3.2,3.5,24.8,4.9,33.1c1.6,9.6,1.6,19.8-8.2,23.1
	c-1.8,0.6-3.7,0.9-5.7,0.8c15.3,20.5,47.5,77.5,47.5,77.5c13.7-9.7,22.4-23.1,24.7-29.6c0.3,0,4.4,1.8,4.4,1.8
	c8.3-16.2,4.9-36.5,2.2-41.7c4.1,2.4,5.6,2.1,5.6,2.1c-0.5-4.2-7.7-21.8-7.7-21.8c4.8,0.6,6.1-1,6.1-1c-9-6-14-22.7-14-22.7
	c2.1,1.2,3.1,1.6,7.2,3.9c-6.8-13.6-17.4-26.7-17.4-26.7c5.8,1.7,14.2-4.4,17.9-6.2c2.9-1.4,5.9-2.5,9-3.3c3.6,0.1,8.1,3.3,11.4,3
	c4.1-0.3,12.6-9.4,13.8-9.3C162.6,265.7,163.5,263.8,162.4,263.1L162.4,263.1z M113.2,245H113c-0.6,0.1-1.2,0.4-1.7,0.7
	c-0.4,0.2-0.7,0.3-1.1,0.5c-1.5,0.7-3.2,0.9-4.9,0.7c-3.9-0.5-6.9-3.6-8.8-7.6c1.3,0.3,2.7,0.5,4.1,0.6c3.3,0.2,7.6,0.2,10.3-0.3
	c0.2,0,0.5,0,0.8,0c3.6,0.2,4.8,6.1,4.8,6.1S115.4,244.5,113.2,245L113.2,245z M727.8,288.5l-16-3.8v10.8h16V288.5z M588.7,334.3
	c0-2.2-0.1-4.5-0.2-7.2c-0.1-2.5-0.5-5-1-7.5c-0.6-2.5-1.6-4.8-2.8-7c-1.4-2.3-3.3-4.4-5.5-5.9c-2.3-1.7-5.3-3-8.8-4
	s-7.8-1.5-12.9-1.5c-3.3,0-6.6,0.2-9.8,0.8c-2.6,0.4-5.2,0.9-7.7,1.6c-2.4,0.6-4.8,1.4-7.1,2.3l-0.5,0.2l-3,16.7l12.7,2.4l1.7-9.6
	c4.6-1.2,9.3-1.8,14.1-1.7c2.9,0,5.3,0.3,7.3,0.9c1.9,0.6,3.4,1.4,4.5,2.3c1.1,0.9,1.9,2,2.5,3.3c0.6,1.3,1,2.7,1.2,4.1
	c0.2,1.5,0.3,2.9,0.3,4.4c0,1.6,0,3.1,0,4.5v0.2l-20.5-0.2c-3.7,0-7.4,0.4-11.1,1.3c-3.3,0.8-6.4,2.1-9.2,4
	c-2.6,1.8-4.8,4.3-6.2,7.2c-1.5,2.9-2.3,6.4-2.2,10.4c0,3.2,0.7,6.4,2.1,9.3c1.4,2.9,3.5,5.4,6,7.4c2.8,2.2,6,3.8,9.4,4.9
	c4,1.2,8.2,1.7,12.4,1.7c5,0,9.6-0.8,13.7-2.3c2.1-0.9,4-2.1,5.8-3.5l0.1,3.4h15.1L588.7,334.3L588.7,334.3z M573.7,361.2
	c-0.9,0.6-1.8,1.2-2.7,1.7c-1.3,0.8-2.7,1.5-4.2,2c-1.8,0.6-3.6,1.1-5.4,1.5c-3.9,0.8-8.5,0.9-12.5-0.1c-1.7-0.4-3.3-1-4.8-2
	c-1.3-0.9-2.4-2-3.2-3.3c-0.8-1.4-1.2-3-1.1-4.7c0-2.3,0.4-4.1,1.1-5.4c0.6-1.2,1.6-2.3,2.9-2.9c1.3-0.7,2.8-1.2,4.3-1.4
	c1.8-0.2,3.5-0.3,5.3-0.3l20.1,0.2L573.7,361.2L573.7,361.2z M653.1,341.2l21-25.1h13.1v-12.5h-35.5v12.5h6.2l-13.3,16.2l-15.3-16.2
	h7.6v-12.5h-40v12.5h13l22.7,24L612,364.8H597v12.5h37.4v-12.5h-6.1l13-15.4l14.7,15.4h-6v12.5h40.1v-12.5h-14.6L653.1,341.2
	L653.1,341.2z M727.7,303.7h-29v12.5h13.8v48.7h-13.8v12.5h42.8v-12.5h-13.8V303.7z M515.9,322.3c-3.2-8.8-10.3-15.8-19.2-18.8
	c-4.8-1.6-9.8-2.4-14.8-2.4c-2.2,0-4.4,0.2-6.6,0.6c-2.1,0.4-4.1,1-6.1,1.7c-1.9,0.7-3.7,1.4-5.4,2.4c-1.4,0.7-2.8,1.5-4.1,2.4
	l-22.9-7.8l-3.9,12.4l15.9,5.3v81.4h-14v12.5h43.1v-12.5h-14v-22.1c2.3,0.7,4.6,1.2,7,1.6c3.4,0.6,6.9,0.9,10.3,0.8
	c5.5,0,10.6-1,15.2-3.1c4.5-2,8.6-4.9,11.8-8.6c3.4-3.8,6-8.3,7.6-13.1c1.8-5,2.7-10.7,2.7-16.8
	C518.5,332.1,517.6,326.9,515.9,322.3L515.9,322.3z M503.1,338.2c0,4-0.5,7.9-1.4,11.8c-0.8,3.3-2.3,6.3-4.2,9.1
	c-1.8,2.5-4.2,4.5-6.9,5.8c-2.7,1.4-6,2.1-9.6,2.1h-0.2c-4.4,0-8.8-0.7-13-2.1c-1.4-0.4-2.7-1-4-1.7v-43.5c1.4-1,2.9-1.9,4.4-2.7
	c1.8-0.8,3.8-1.5,5.7-2c2.5-0.6,5.1-0.9,7.7-0.9h0C496.1,314,503.1,321.9,503.1,338.2L503.1,338.2z M745.4,306.9
	c0-1.4-1.1-2.1-2.6-2.1h-3.1l0,6.7h1.3v-2.3h1.4l1.6,2.3h1.6l-1.8-2.6C744.8,308.7,745.4,307.9,745.4,306.9L745.4,306.9z
	 M742.6,308.1H741v-2.2h1.6c0.9,0,1.4,0.4,1.4,1.1C744,307.7,743.5,308.1,742.6,308.1z"/>
<path d="M742.3,301.6c-3.7,0-6.6,3-6.6,6.7v0c0,3.7,3,6.6,6.6,6.6c0,0,0,0,0,0c3.7,0,6.6-3,6.6-6.7v0
	C749,304.6,746,301.6,742.3,301.6z M748.2,308.3c-0.2,3.2-3,5.7-6.2,5.6c-3-0.2-5.4-2.5-5.5-5.5v0c0.2-3.2,3-5.7,6.2-5.6
	C745.6,302.9,748,305.3,748.2,308.3L748.2,308.3z M295.7,311.8c-3.4-3.4-7.5-6.1-12-7.8c-4.7-1.8-9.9-2.7-15.5-2.7
	c-5.2-0.1-10.3,0.9-15.1,2.7c-4.5,1.7-8.5,4.4-11.9,7.8c-3.3,3.3-5.9,7.5-7.7,12.4s-2.7,10.4-2.7,16.4c0,6,0.9,11.6,2.7,16.4
	s4.4,9,7.7,12.4c3.4,3.4,7.4,6,11.9,7.8c4.8,1.8,10,2.7,15.1,2.7c5.7,0,10.9-0.9,15.5-2.7c4.5-1.7,8.6-4.3,12-7.8
	c3.4-3.5,6.1-7.7,7.8-12.4c1.8-4.8,2.7-10.3,2.7-16.4c0-6.1-0.9-11.7-2.7-16.5C301.8,319.5,299.2,315.3,295.7,311.8L295.7,311.8z
	 M285.1,360.2c-3.6,4.5-9.3,6.8-16.8,6.8s-12.9-2.3-16.5-6.8c-3.7-4.6-5.6-11.2-5.6-19.6s1.9-15.1,5.6-19.7
	c3.7-4.6,9.2-6.9,16.5-6.9s13.1,2.3,16.8,6.9c3.8,4.6,5.7,11.2,5.7,19.7S288.8,355.7,285.1,360.2L285.1,360.2z M218.6,360
	c-2,1.4-4.2,2.5-6.5,3.5c-2.3,1-4.6,1.8-7,2.5c-2.7,0.7-5.6,1.1-8.4,1c-7.3,0-12.9-2.3-16.5-6.8c-3.7-4.7-5.6-11.3-5.6-19.7
	s1.9-15.1,5.6-19.6c3.6-4.5,9.2-6.8,16.5-6.8c3.8,0,6.7,0.2,8.8,0.8c1.9,0.5,2.9,0.8,3.6,1l2.2,12.1l12.8-2.8l-3.8-19.5l-0.5-0.2
	c-1.9-0.8-3.8-1.5-5.8-2c-2.4-0.6-4.8-1.1-7.2-1.4c-3.4-0.5-6.8-0.7-10.2-0.7c-5.2,0-10.3,0.9-15.1,2.7c-4.5,1.7-8.5,4.4-11.9,7.8
	c-3.4,3.5-6,7.7-7.7,12.4c-1.8,4.8-2.7,10.3-2.7,16.4c0,6,0.9,11.6,2.7,16.4c1.7,4.6,4.3,8.9,7.7,12.4c3.4,3.4,7.4,6.1,11.9,7.8
	c4.8,1.9,9.9,2.8,15.1,2.7c3.8,0,7.5-0.5,11.2-1.6c3.1-0.9,6.2-2,9.1-3.4c2.2-1,4.2-2.1,6.2-3.4c2.6-1.7,2.7-1.8,2.7-2.5v-0.3
	l-6.4-9.3L218.6,360L218.6,360z M355.3,366.5c-0.1,0-0.3,0-2.7,0.4c-1.8,0.2-3.6,0.4-5.4,0.4c-3.1-0.2-5.4-1.1-6.9-2.6
	c-1.6-1.6-2.8-3.6-3.4-5.7c-0.7-2.4-1.1-5-1.2-7.5c-0.1-2.7-0.1-5.2-0.1-7.4v-27.9h20.8v-12.5h-20.8v-17.7l-14.9,3.5v14.3h-13.8
	v12.5h13.8v35.2c0,4.7,0.6,8.8,1.8,12.3c1.1,3.3,2.8,6.3,5.1,8.9c2.3,2.4,5.1,4.3,8.2,5.4c3.4,1.2,7.1,1.8,10.7,1.8
	c1.6,0,3.1-0.1,4.6-0.2c1.3-0.1,2.5-0.4,3.7-0.7c1.2-0.2,2.3-0.6,3.4-1l0.9-0.3l-3-11L355.3,366.5L355.3,366.5z M431.9,324.1
	c-1.7-4.6-4.3-8.8-7.7-12.4c-3.4-3.4-7.5-6.1-12.1-7.8c-4.7-1.8-9.9-2.7-15.5-2.7s-10.6,0.9-15.1,2.7c-4.5,1.7-8.5,4.4-11.9,7.8
	c-3.4,3.5-6.1,7.8-7.7,12.4c-1.8,4.9-2.7,10.4-2.7,16.4c0,6,0.9,11.6,2.7,16.4c1.7,4.6,4.3,8.8,7.7,12.4c3.4,3.4,7.4,6,11.9,7.8
	c4.8,1.8,9.9,2.7,15.1,2.7c5.3,0,10.5-0.9,15.5-2.7c4.5-1.7,8.7-4.3,12.1-7.8c3.4-3.5,6-7.7,7.7-12.4c1.8-4.9,2.8-10.4,2.8-16.4
	C434.6,334.6,433.7,329,431.9,324.1L431.9,324.1z M413.5,360.2c-3.7,4.5-9.2,6.8-16.8,6.8c-7.4,0-12.8-2.2-16.5-6.8
	c-3.7-4.6-5.6-11.2-5.6-19.6s1.9-15.1,5.6-19.7s9.1-6.9,16.5-6.9c7.4,0,13,2.3,16.8,6.9c3.8,4.7,5.7,11.3,5.7,19.7
	C419.1,349,417.2,355.7,413.5,360.2z"/>
</svg>
